<?xml version="1.0" encoding="utf-8"?>
<!-- Generator: Adobe Illustrator 19.0.0, SVG Export Plug-In . SVG Version: 6.00 Build 0)  -->
<svg version="1.1" id="Layer_1" xmlns="http://www.w3.org/2000/svg" xmlns:xlink="http://www.w3.org/1999/xlink" x="0px" y="0px"
	 viewBox="-406 207 147 147" style="enable-background:new -406 207 147 147;" xml:space="preserve">
<style type="text/css">
	.st0{fill:#506FBA;}
	.st1{opacity:0.25;clip-path:url(#SVGID_2_);fill:none;stroke:#000000;stroke-width:6.5724;enable-background:new    ;}
	.st2{opacity:0.25;clip-path:url(#SVGID_4_);enable-background:new    ;}
	.st3{clip-path:url(#SVGID_6_);fill:none;stroke:#FFFFFF;stroke-width:6.5724;}
	.st4{clip-path:url(#SVGID_8_);fill:#FFFFFF;}
</style>
<g id="Layer_1_1_">
	<path class="st0" d="M-261.5,280.5c0,39.2-31.8,71-71,71s-71-31.8-71-71s31.8-71,71-71S-261.5,241.3-261.5,280.5z"/>
</g>
<g id="Layer_2">
</g>
<g id="Layer_1_copy">
	<g>
		<g>
			<defs>
				<path id="SVGID_1_" d="M-261.5,280.5c0,39.2-31.8,71-71,71s-71-31.8-71-71s31.8-71,71-71S-261.5,241.3-261.5,280.5z"/>
			</defs>
			<clipPath id="SVGID_2_">
				<use xlink:href="#SVGID_1_"  style="overflow:visible;"/>
			</clipPath>
			<path class="st1" d="M-307.7,265.8c-35.1,0-65.4,61-76.4,86.3c-15,34.5,4.4,27.2,15.3,4.4l26.6-88.1
				c-10.1,6.3-15.6-15.7-23.8,8.2 M-307.7,265.8c-28.8,0-28.2,40-11.8,40c20.8,0,26.5-29.4,26.5-29.4 M-307.7,265.8
				c0,0,6.6,0,14.8,10.6 M-265.8,189.4l-27.1,87"/>
		</g>
		<g>
			<defs>
				<path id="SVGID_3_" d="M-261.5,280.5c0,39.2-31.8,71-71,71s-71-31.8-71-71s31.8-71,71-71S-261.5,241.3-261.5,280.5z"/>
			</defs>
			<clipPath id="SVGID_4_">
				<use xlink:href="#SVGID_3_"  style="overflow:visible;"/>
			</clipPath>
			<circle class="st2" cx="-334.9" cy="251.8" r="3.3"/>
		</g>
		<g>
			<defs>
				<path id="SVGID_5_" d="M-261.5,280.5c0,39.2-31.8,71-71,71s-71-31.8-71-71s31.8-71,71-71S-261.5,241.3-261.5,280.5z"/>
			</defs>
			<clipPath id="SVGID_6_">
				<use xlink:href="#SVGID_5_"  style="overflow:visible;"/>
			</clipPath>
			<path class="st3" d="M-307.7,262.4c-35.1,0-65.4,61-76.4,86.3c-15,34.5,4.4,27.2,15.3,4.4l26.6-88.1
				c-10.1,6.3-15.6-15.7-23.8,8.2 M-307.7,262.4c-28.8,0-28.2,40-11.8,40c20.8,0,26.5-29.4,26.5-29.4 M-307.7,262.4
				c0,0,6.6,0,14.8,10.6 M-265.8,186l-27.1,87"/>
		</g>
		<g>
			<defs>
				<path id="SVGID_7_" d="M-261.5,280.5c0,39.2-31.8,71-71,71s-71-31.8-71-71s31.8-71,71-71S-261.5,241.3-261.5,280.5z"/>
			</defs>
			<clipPath id="SVGID_8_">
				<use xlink:href="#SVGID_7_"  style="overflow:visible;"/>
			</clipPath>
			<circle class="st4" cx="-334.9" cy="248.5" r="3.3"/>
		</g>
	</g>
</g>
</svg>
